<svg width="241" height="205" viewBox="0 0 241 205" fill="none" xmlns="http://www.w3.org/2000/svg">
<path d="M232.932 197.318C232.759 197.524 232.16 198.093 230.219 198.352C228.23 198.617 225.344 198.469 221.454 197.636C213.689 195.972 203.302 191.885 190.902 185.465C166.196 172.673 134.769 151.287 102.598 124.292C70.427 97.2981 43.9089 70.0618 27.0209 47.953C18.5449 36.8558 12.7169 27.3365 9.72994 19.9779C8.23394 16.2923 7.58694 13.476 7.50194 11.4708C7.41994 9.51464 7.87692 8.82594 8.04992 8.61984C8.22292 8.41374 8.82193 7.84414 10.7629 7.58554C12.7519 7.32054 15.6379 7.46854 19.5269 8.30194C27.2929 9.96584 37.6789 14.0522 50.0799 20.4728C74.7849 33.2645 106.212 54.6505 138.383 81.6451C170.554 108.64 197.073 135.876 213.96 157.985C222.437 169.082 228.265 178.601 231.252 185.96C232.748 189.645 233.395 192.462 233.479 194.467C233.561 196.423 233.104 197.112 232.932 197.318Z" stroke="#212121" stroke-width="13"/>
<path d="M232.95 8.4816C233.123 8.6877 233.58 9.3765 233.498 11.3327C233.413 13.3379 232.766 16.1542 231.27 19.8397C228.283 27.1984 222.455 36.7176 213.979 47.8148C197.091 69.9236 170.573 97.1592 138.402 124.154C106.231 151.149 74.804 172.535 50.098 185.326C37.698 191.747 27.311 195.833 19.546 197.497C15.656 198.331 12.771 198.479 10.781 198.214C8.84 197.955 8.24098 197.386 8.06798 197.179C7.89598 196.973 7.43899 196.285 7.52099 194.328C7.60499 192.323 8.25198 189.507 9.74798 185.821C12.736 178.463 18.563 168.944 27.04 157.846C43.927 135.737 70.446 108.501 102.617 81.5072C134.788 54.5124 166.215 33.1264 190.92 20.3347C203.321 13.914 213.707 9.8276 221.473 8.1637C225.362 7.3304 228.248 7.1823 230.237 7.4474C232.178 7.7059 232.777 8.2756 232.95 8.4816Z" stroke="#212121" stroke-width="13"/>
</svg>
